<?xml version="1.0" encoding="utf-8"?>
<!-- Generator: Adobe Illustrator 17.1.0, SVG Export Plug-In . SVG Version: 6.00 Build 0)  -->
<!DOCTYPE svg PUBLIC "-//W3C//DTD SVG 1.1//EN" "http://www.w3.org/Graphics/SVG/1.1/DTD/svg11.dtd">
<svg version="1.1" id="Layer_1" xmlns="http://www.w3.org/2000/svg" xmlns:xlink="http://www.w3.org/1999/xlink" x="0px" y="0px"
	 viewBox="270.2 220 70.7 70.8" enable-background="new 270.2 220 70.7 70.8" xml:space="preserve">
<g>
	<g>
		<path fill="#4BAD4F" d="M336.1,273.4c3.1-5.2,4.9-11.4,4.9-17.9c0-8.3-2.8-16-7.7-22l-24.1,39.9H336.1z"/>
		<path fill="#4BAD4F" d="M329.4,229.2c-6.2-5.7-14.6-9.2-23.8-9.2c-10.5,0-19.9,4.6-26.4,11.9h32.6L282,281.8
			c6.2,5.7,14.5,9.1,23.7,9.1c10.5,0,20.1-4.6,26.5-11.9h-32.9L329.4,229.2z"/>
		<path fill="#4BAD4F" d="M275.1,237.5c-3.1,5.2-4.9,11.3-4.9,17.9c0,8.4,2.9,16.1,7.8,22.2l24-40.1H275.1L275.1,237.5z"/>
		<path fill="#FFFFFF" d="M282,281.8l29.8-49.8h-32.6c-1.5,1.7-2.8,3.5-4,5.6h27l-24.1,40C279.3,279,280.5,280.4,282,281.8z"/>
		<path fill="#FFFFFF" d="M329.4,229.2l-30,49.6h32.8c1.5-1.7,2.8-3.5,4-5.6h-27l24.1-40C332.1,231.9,330.9,230.4,329.4,229.2z"/>
	</g>
</g>
</svg>
