<?xml version="1.0" encoding="utf-8"?>
<!-- Generator: Adobe Illustrator 17.1.0, SVG Export Plug-In . SVG Version: 6.00 Build 0)  -->
<!DOCTYPE svg PUBLIC "-//W3C//DTD SVG 1.1//EN" "http://www.w3.org/Graphics/SVG/1.1/DTD/svg11.dtd">
<svg version="1.1" id="Layer_1" xmlns="http://www.w3.org/2000/svg" xmlns:xlink="http://www.w3.org/1999/xlink" x="0px" y="0px"
	 viewBox="0 0 62.5 96.9" enable-background="new 0 0 62.5 96.9" xml:space="preserve">
<g>
	<g>
		<path fill="#4BAD4F" d="M16.1,96.7H3.8v-1l6.4-10.6H3.8v-3.6h12.2v1.1L9.7,93.1h6.4V96.7z"/>
		<path fill="#4BAD4F" d="M17.8,89.1c0-2.2,0.7-4.1,2.1-5.5c1.4-1.4,3.3-2.1,5.5-2.1c2.2,0,4,0.7,5.4,2.1c1.3,1.4,2,3.3,2,5.5v1.5
			H22.3c0.1,0.8,0.5,1.5,1.1,1.9c0.6,0.5,1.3,0.7,2.1,0.7c1.4,0,2.7-0.4,3.8-1.2l2.4,2.4c-1.1,1.5-3.2,2.3-6.3,2.3
			c-2.2,0-4.1-0.7-5.5-2.1C18.5,93.1,17.8,91.3,17.8,89.1z M27.6,85.6c-0.6-0.5-1.3-0.7-2.1-0.7c-0.8,0-1.5,0.2-2.1,0.7
			c-0.6,0.5-0.9,1.1-0.9,1.9h6.1C28.5,86.7,28.2,86.1,27.6,85.6z"/>
		<path fill="#4BAD4F" d="M44,81.8c0.8,0.3,1.5,0.9,2.2,1.5l-2.4,2.7c-0.7-0.8-1.6-1.2-2.6-1.2c-1,0-1.7,0.2-2.1,0.6
			c-0.3,0.4-0.3,0.7,0,1c0.3,0.3,1,0.6,2.1,0.8c1.5,0.1,2.8,0.6,3.7,1.3c1,0.7,1.5,2,1.5,3.8c0,1.4-0.6,2.6-1.7,3.4
			c-1.1,0.8-2.5,1.2-4,1.2c-1.4,0-2.7-0.2-3.6-0.6c-1-0.4-1.8-1-2.5-1.7l2.4-2.7c0.7,0.8,1.8,1.3,3.2,1.4c1.2,0,1.9-0.2,2.3-0.6
			c0.3-0.4,0.4-0.8,0.2-1.1c-0.2-0.4-1-0.6-2.4-0.8c-1.2-0.1-2.4-0.5-3.4-1.1c-1-0.6-1.6-1.8-1.6-3.5c0-1.6,0.6-2.8,1.8-3.6
			c1.2-0.8,2.4-1.2,3.6-1.2C42,81.3,43.2,81.5,44,81.8z"/>
		<path fill="#4BAD4F" d="M56.1,96.7c-1.7,0-3.1-0.5-4.1-1.5c-1-1-1.5-2.2-1.5-3.7v-6.6h-2.3v-3.5h2.3v-4.1l4.3-0.5v4.6H57v3.5h-2.3
			v6c0,0.8,0.2,1.4,0.5,1.7c0.3,0.3,0.8,0.5,1.3,0.5c0.2,0,0.5-0.1,1.1-0.2l0.9,3.1C57.9,96.5,57.1,96.7,56.1,96.7z"/>
	</g>
</g>
<path fill="#4BAD4F" d="M58.1,47.1c2.7-4.6,4.3-10.1,4.3-15.8c0-7.3-2.5-14.1-6.8-19.4L34.3,47.1H58.1z"/>
<path fill="#4BAD4F" d="M52.2,8.1c-5.5-5-12.9-8.1-21-8.1C21.9,0,13.6,4.1,7.9,10.5h28.8L10.4,54.5c5.5,5,12.8,8,20.9,8
	c9.3,0,17.7-4.1,23.4-10.5H25.7L52.2,8.1z"/>
<path fill="#4BAD4F" d="M4.3,15.4C1.6,20,0,25.4,0,31.2c0,7.4,2.6,14.2,6.9,19.6l21.2-35.4H4.3z"/>
</svg>
